<?xml version="1.0" encoding="UTF-8" standalone="no"?>
<svg
   xmlns:dc="http://purl.org/dc/elements/1.1/"
   xmlns:cc="http://creativecommons.org/ns#"
   xmlns:rdf="http://www.w3.org/1999/02/22-rdf-syntax-ns#"
   xmlns:svg="http://www.w3.org/2000/svg"
   xmlns="http://www.w3.org/2000/svg"
   xmlns:sodipodi="http://sodipodi.sourceforge.net/DTD/sodipodi-0.dtd"
   xmlns:inkscape="http://www.inkscape.org/namespaces/inkscape"
   width="1957"
   height="2500"
   viewBox="0 0 256 327"
   preserveAspectRatio="xMinYMin meet"
   version="1.1"
   id="svg9944"
   sodipodi:docname="BeholderPi.svg"
   inkscape:version="0.92.4 (33fec40, 2019-01-16)">
  <metadata
     id="metadata9950">
    <rdf:RDF>
      <cc:Work
         rdf:about="">
        <dc:format>image/svg+xml</dc:format>
        <dc:type
           rdf:resource="http://purl.org/dc/dcmitype/StillImage" />
        <dc:title></dc:title>
      </cc:Work>
    </rdf:RDF>
  </metadata>
  <defs
     id="defs9948" />
  <sodipodi:namedview
     pagecolor="#ffffff"
     bordercolor="#666666"
     borderopacity="1"
     objecttolerance="10"
     gridtolerance="10"
     guidetolerance="10"
     inkscape:pageopacity="0"
     inkscape:pageshadow="2"
     inkscape:window-width="2517"
     inkscape:window-height="1385"
     id="namedview9946"
     showgrid="false"
     inkscape:zoom="0.4668"
     inkscape:cx="978.84055"
     inkscape:cy="837.34289"
     inkscape:window-x="43"
     inkscape:window-y="27"
     inkscape:window-maximized="1"
     inkscape:current-layer="svg9944" />
  <path
     d="M69.298.005c-1.653.051-3.433.662-5.453 2.255C58.9.353 54.102-.31 49.813 3.573c-6.623-.859-8.775.914-10.406 2.984-1.454-.03-10.879-1.495-15.202 4.953C13.343 10.225 9.91 17.899 13.8 25.056c-2.219 3.434-4.518 6.827.67 13.375-1.835 3.646-.697 7.602 3.626 12.389-1.14 5.127 1.102 8.743 5.125 11.562-.753 7.015 6.433 11.094 8.578 12.547.824 4.087 2.541 7.945 10.748 10.077 1.354 6.092 6.286 7.144 11.063 8.422-15.787 9.177-29.325 21.25-29.233 50.875l-2.313 4.125c-18.102 11.008-34.388 46.39-8.92 75.148 1.663 9.002 4.453 15.468 6.937 22.624 3.715 28.836 27.962 42.339 34.358 43.936 9.371 7.138 19.352 13.911 32.86 18.656 12.731 13.131 26.525 18.136 40.394 18.128.204 0 28.277-4.996 41.01-18.128 13.506-4.745 23.487-11.518 32.86-18.656 6.394-1.597 30.641-15.1 34.356-43.936 2.484-7.156 5.274-13.622 6.938-22.624 25.466-28.761 9.181-64.144-8.92-75.152l-2.317-4.125c.092-29.622-13.446-41.696-29.233-50.875 4.776-1.278 9.71-2.33 11.062-8.422 8.207-2.133 9.925-5.99 10.748-10.077 2.146-1.453 9.331-5.532 8.58-12.547 4.021-2.819 6.264-6.436 5.123-11.562 4.324-4.787 5.461-8.743 3.626-12.39 5.19-6.544 2.887-9.937.671-13.371 3.888-7.157.457-14.832-10.409-13.546-4.32-6.448-13.744-4.984-15.202-4.954-1.63-2.069-3.782-3.842-10.405-2.983-4.289-3.883-9.085-3.221-14.032-1.313-5.874-4.635-9.76-.92-14.2.485-7.112-2.324-8.739.859-12.233 2.156-7.756-1.639-10.113 1.929-13.83 5.695l-4.326-.086c-11.698 6.894-17.51 20.932-19.57 28.149-2.06-7.218-7.859-21.256-19.555-28.149l-4.325.086c-3.723-3.766-6.079-7.334-13.835-5.695C86.78 3.603 85.16.42 78.042 2.744c-2.914-.922-5.594-2.838-8.749-2.74L-11 141"
     id="path9938" />
  <path
     d="M46.008 30.334c31.036 16.001 49.079 28.945 58.964 39.969-5.062 20.289-31.47 21.215-41.126 20.646 1.977-.92 3.627-2.023 4.212-3.716-2.423-1.722-11.014-.182-17.012-3.551 2.304-.478 3.382-.943 4.459-2.643-5.666-1.807-11.77-3.365-15.36-6.359 1.937.024 3.746.434 6.276-1.321-5.075-2.735-10.491-4.903-14.699-9.084 2.624-.064 5.453-.026 6.276-.991-4.645-2.878-8.565-6.078-11.809-9.579 3.672.443 5.223.062 6.111-.578-3.512-3.597-7.956-6.634-10.075-11.066 2.726.94 5.221 1.3 7.019-.082-1.193-2.692-6.305-4.28-9.249-10.571 2.871.279 5.915.626 6.524 0-1.332-5.428-3.618-8.48-5.86-11.642 6.143-.091 15.451.024 15.03-.495L31.89 15.39c6.001-1.616 12.141.259 16.599 1.651 2.001-1.579-.036-3.576-2.478-5.615 5.1.681 9.708 1.853 13.874 3.468 2.225-2.009-1.445-4.019-3.221-6.028 7.879 1.494 11.217 3.595 14.534 5.698 2.407-2.307.138-4.268-1.486-6.276 5.941 2.2 9.001 5.041 12.222 7.845 1.092-1.474 2.775-2.555.743-6.111 4.218 2.431 7.395 5.296 9.745 8.506 2.61-1.662 1.555-3.934 1.569-6.029 4.384 3.566 7.166 7.361 10.571 11.066.686-.5 1.286-2.193 1.817-4.872 10.457 10.145 25.234 35.7 3.798 45.832-18.243-15.046-40.031-25.983-64.176-34.187l.007-.004M210.686 30.334c-31.032 16.003-49.075 28.943-58.959 39.969 5.062 20.289 31.469 21.215 41.125 20.646-1.977-.92-3.627-2.023-4.211-3.716 2.423-1.722 11.014-.182 17.011-3.551-2.304-.478-3.381-.943-4.459-2.643 5.667-1.807 11.771-3.365 15.36-6.359-1.937.024-3.746.434-6.276-1.321 5.076-2.735 10.492-4.903 14.7-9.084-2.625-.064-5.454-.026-6.276-.991 4.645-2.878 8.565-6.078 11.809-9.579-3.673.443-5.223.062-6.111-.578 3.511-3.597 7.956-6.634 10.075-11.066-2.727.94-5.222 1.3-7.02-.082 1.193-2.692 6.306-4.28 9.249-10.571-2.87.279-5.915.626-6.524 0 1.335-5.43 3.621-8.482 5.863-11.644-6.143-.091-15.451.024-15.03-.495l3.799-3.882c-6.001-1.615-12.141.26-16.599 1.652-2.001-1.579.035-3.576 2.477-5.615-5.099.68-9.708 1.853-13.873 3.468-2.226-2.009 1.445-4.019 3.221-6.028-7.879 1.494-11.217 3.595-14.535 5.698-2.407-2.307-.137-4.268 1.487-6.276-5.941 2.2-9.001 5.041-12.222 7.845-1.093-1.474-2.775-2.555-.744-6.111-4.217 2.431-7.394 5.296-9.744 8.506-2.61-1.662-1.555-3.935-1.569-6.029-4.384 3.566-7.166 7.36-10.571 11.066-.686-.5-1.286-2.193-1.817-4.873-10.457 10.146-25.234 35.701-3.798 45.833 18.233-15.05 40.02-25.985 64.166-34.189h-.004"
     fill="#75A928"
     id="path9940" />
  <path
     d="m 30.258,155.504 c 16.631,-4.458 5.615,68.803 -7.917,62.792 C 7.456,206.324 2.662,171.263 30.258,155.504 m 192.195,-0.913 c -16.633,-4.457 -5.615,68.807 7.917,62.796 14.885,-11.973 19.679,-47.038 -7.917,-62.796 m -56.507,-54.557 c 28.701,-4.846 52.583,12.206 51.619,43.328 -0.944,11.932 -62.193,-41.551 -51.619,-43.328 m -79.3,-0.913 C 57.943,94.274 34.063,111.33 35.027,142.45 35.971,154.381 97.221,100.898 86.646,99.121 m 41.228,-7.258 c -17.13,-0.446 -33.57,12.713 -33.61,20.346 -0.047,9.274 13.544,18.77 33.727,19.011 20.61,0.147 33.762,-7.601 33.828,-17.172 0.076,-10.844 -18.745,-22.353 -33.945,-22.186 v 0.001 m 1.046,190.18 c 14.935,-0.652 34.975,4.81 35.015,12.057 0.248,7.036 -18.175,22.934 -36.005,22.627 -18.466,0.797 -36.573,-15.126 -36.336,-20.645 -0.277,-8.092 22.484,-14.41 37.326,-14.039 M 70.112979,250.02706 c 10.633,12.81 19.124021,24.38694 10.250021,31.02194 -8.395,5.065 -28.782,2.979 -43.272,-17.838 -9.773,-17.468 -8.514,-35.243 -1.652,-40.465 10.261,-6.25 12.663846,-0.88956 24.866846,13.26944 m 126.414104,14.15411 c -10.94454,14.31569 -20.71332,25.44254 -12.32132,33.35854 8.025,6.15 27.60537,2.76791 43.51737,-19.31109 11.554,-14.829 7.683,-39.594 1.083,-46.17 -9.804,-7.583 -12.94994,5.48479 -23.31161,20.34879"
     id="path9942"
     inkscape:connector-curvature="0"
     style="fill:#ffaaaa"
     sodipodi:nodetypes="ccccccccccccccccccccccccccccccccc" />
  <ellipse
     style="fill:#ffffff;fill-opacity:1;stroke:#000000;stroke-width:0.65406233;stroke-linecap:round;stroke-miterlimit:4;stroke-dasharray:none;stroke-opacity:0.9842932"
     id="path9952"
     cx="128.76677"
     cy="199.80569"
     rx="70.478447"
     ry="65.854607" />
  <ellipse
     style="fill:#000000;fill-opacity:1;stroke:#000000;stroke-width:0.65406233;stroke-linecap:round;stroke-miterlimit:4;stroke-dasharray:none;stroke-opacity:0.9842932"
     id="path9954"
     cx="127.9501"
     cy="229.65041"
     rx="36.911007"
     ry="32.086609" />
  <ellipse
     style="fill:#000000;fill-opacity:1;stroke:#000000;stroke-width:0.65406233;stroke-linecap:round;stroke-miterlimit:4;stroke-dasharray:none;stroke-opacity:0.9842932"
     id="path9956"
     cx="70.478447"
     cy="276.73859"
     rx="7.7063904"
     ry="5.4554276" />
  <path
     style="fill:#000000;fill-opacity:1;stroke:#000000;stroke-width:0.65406233;stroke-linecap:round;stroke-miterlimit:4;stroke-dasharray:none;stroke-opacity:0.9842932"
     id="path9960"
     sodipodi:type="arc"
     sodipodi:cx="13.211679"
     sodipodi:cy="188.89716"
     sodipodi:rx="2.1301577"
     sodipodi:ry="8.2729378"
     sodipodi:start="0"
     sodipodi:end="6.2823136"
     d="m 15.341837,188.89716 a 2.1301577,8.2729378 0 0 1 -2.129693,8.27293 2.1301577,8.2729378 0 0 1 -2.130622,-8.26933 2.1301577,8.2729378 0 0 1 2.128765,-8.27654 2.1301577,8.2729378 0 0 1 2.131549,8.26572 l -2.130157,0.007 z" />
  <path
     style="fill:#000000;fill-opacity:1;stroke:#000000;stroke-width:0.65406233;stroke-linecap:round;stroke-miterlimit:4;stroke-dasharray:none;stroke-opacity:0.9842932"
     id="path9962"
     sodipodi:type="arc"
     sodipodi:cx="113.21387"
     sodipodi:cy="109.43074"
     sodipodi:rx="8.9674358"
     sodipodi:ry="8.8273201"
     sodipodi:start="0"
     sodipodi:end="6.2823126"
     d="m 122.1813,109.43074 a 8.9674358,8.8273201 0 0 1 -8.96548,8.82732 8.9674358,8.8273201 0 0 1 -8.96939,-8.82347 8.9674358,8.8273201 0 0 1 8.96157,-8.83117 8.9674358,8.8273201 0 0 1 8.9733,8.81962 l -8.96743,0.008 z" />
  <path
     style="fill:#000000;fill-opacity:1;stroke:#000000;stroke-width:0.65406233;stroke-linecap:round;stroke-miterlimit:4;stroke-dasharray:none;stroke-opacity:0.9842932"
     id="path9964"
     sodipodi:type="arc"
     sodipodi:cx="114.33479"
     sodipodi:cy="296.20563"
     sodipodi:rx="7.4261456"
     sodipodi:ry="7.1459327"
     sodipodi:start="0"
     sodipodi:end="6.2823126"
     d="m 121.76094,296.20563 a 7.4261456,7.1459327 0 0 1 -7.42453,7.14593 7.4261456,7.1459327 0 0 1 -7.42776,-7.14281 7.4261456,7.1459327 0 0 1 7.42128,-7.14905 7.4261456,7.1459327 0 0 1 7.43101,7.13969 l -7.42615,0.006 z" />
  <path
     style="fill:#000000;fill-opacity:1;stroke:#000000;stroke-width:0.65951091;stroke-linecap:round;stroke-miterlimit:4;stroke-dasharray:none;stroke-opacity:0.9842932"
     id="path9966"
     sodipodi:type="arc"
     sodipodi:cx="-20.901304"
     sodipodi:cy="120.37742"
     sodipodi:rx="6.8611259"
     sodipodi:ry="5.508944"
     sodipodi:start="0"
     sodipodi:end="6.2823126"
     d="m -14.040178,120.37742 a 6.8611259,5.508944 0 0 1 -6.859629,5.50894 6.8611259,5.508944 0 0 1 -6.862623,-5.50654 6.8611259,5.508944 0 0 1 6.856635,-5.51134 6.8611259,5.508944 0 0 1 6.865614,5.50413 l -6.861123,0.005 z"
     transform="matrix(0.71552865,-0.69858339,0.55781892,0.82996268,0,0)" />
  <path
     style="fill:#000000;fill-opacity:1;stroke:#000000;stroke-width:0.65406239;stroke-linecap:round;stroke-miterlimit:4;stroke-dasharray:none;stroke-opacity:0.9842932"
     id="path9968"
     sodipodi:type="arc"
     sodipodi:cx="190.12692"
     sodipodi:cy="111.56721"
     sodipodi:rx="6.3484235"
     sodipodi:ry="6.1518145"
     sodipodi:start="0"
     sodipodi:end="6.2823126"
     d="m 196.47535,111.56721 a 6.3484235,6.1518145 0 0 1 -6.34704,6.15181 6.3484235,6.1518145 0 0 1 -6.34981,-6.14913 6.3484235,6.1518145 0 0 1 6.34427,-6.1545 6.3484235,6.1518145 0 0 1 6.35257,6.14645 l -6.34842,0.005 z" />
  <path
     style="fill:#000000;fill-opacity:1;stroke:#000000;stroke-width:0.65960205;stroke-linecap:round;stroke-miterlimit:4;stroke-dasharray:none;stroke-opacity:0.9842932"
     id="path9970"
     sodipodi:type="arc"
     sodipodi:cx="275.31168"
     sodipodi:cy="200.31895"
     sodipodi:rx="1.75002"
     sodipodi:ry="8.5143576"
     sodipodi:start="0"
     sodipodi:end="6.2823126"
     d="m 277.0617,200.31895 a 1.75002,8.5143576 0 0 1 -1.74964,8.51436 1.75002,8.5143576 0 0 1 -1.7504,-8.51064 1.75002,8.5143576 0 0 1 1.74887,-8.51807 1.75002,8.5143576 0 0 1 1.75117,8.50692 l -1.75002,0.007 z"
     transform="matrix(1,0,-0.18213489,0.98327355,0,0)" />
  <path
     style="fill:#000000;fill-opacity:1;stroke:#000000;stroke-width:0.65406233;stroke-linecap:round;stroke-miterlimit:4;stroke-dasharray:none;stroke-opacity:0.9842932"
     id="path9972"
     sodipodi:type="arc"
     sodipodi:cx="189.9883"
     sodipodi:cy="273.22659"
     sodipodi:rx="7.4169164"
     sodipodi:ry="7.2860546"
     sodipodi:start="0"
     sodipodi:end="6.2823126"
     d="m 197.40521,273.22659 a 7.4169164,7.2860546 0 0 1 -7.4153,7.28606 7.4169164,7.2860546 0 0 1 -7.41853,-7.28288 7.4169164,7.2860546 0 0 1 7.41206,-7.28923 7.4169164,7.2860546 0 0 1 7.42177,7.27969 l -7.41691,0.006 z" />
</svg>
