<?xml version="1.0" encoding="utf-8"?>
<!-- Generator: Adobe Illustrator 22.0.1, SVG Export Plug-In . SVG Version: 6.00 Build 0)  -->
<svg version="1.1"
	 id="svg9999" inkscape:version="0.92.4 (33fec40, 2019-01-16)" sodipodi:docname="BeholderPiLogo.svg" xmlns:cc="http://creativecommons.org/ns#" xmlns:dc="http://purl.org/dc/elements/1.1/" xmlns:inkscape="http://www.inkscape.org/namespaces/inkscape" xmlns:rdf="http://www.w3.org/1999/02/22-rdf-syntax-ns#" xmlns:sodipodi="http://sodipodi.sourceforge.net/DTD/sodipodi-0.dtd" xmlns:svg="http://www.w3.org/2000/svg"
	 xmlns="http://www.w3.org/2000/svg" xmlns:xlink="http://www.w3.org/1999/xlink" x="0px" y="0px" viewBox="0 0 578 181"
	 style="enable-background:new 0 0 578 181;" xml:space="preserve">
<style type="text/css">
	.st0{fill:#75A928;}
	.st1{fill:#FFAAAA;}
	.st2{fill:#FFFFFF;stroke:#000000;stroke-width:0.6541;stroke-linecap:round;stroke-opacity:0.9843;}
	.st3{stroke:#000000;stroke-width:0.5689;stroke-linecap:round;stroke-opacity:0.9843;}
	.st4{stroke:#000000;stroke-width:0.6541;stroke-linecap:round;stroke-opacity:0.9843;}
	.st5{stroke:#000000;stroke-width:0.6595;stroke-linecap:round;stroke-opacity:0.9843;}
	.st6{stroke:#000000;stroke-width:0.6596;stroke-linecap:round;stroke-opacity:0.9843;}
	.st7{fill:none;}
	.st8{font-family:'Quicksand-Bold';}
	.st9{font-size:80px;}
	.st10{font-family:'Quicksand-Regular';}
	.st11{font-size:27px;}
</style>
<sodipodi:namedview  bordercolor="#666666" borderopacity="1.0" fit-margin-bottom="0" fit-margin-left="0" fit-margin-right="0" fit-margin-top="0" id="base" inkscape:current-layer="g10629" inkscape:cx="439.05483" inkscape:cy="-29.933169" inkscape:document-units="mm" inkscape:pageopacity="0.0" inkscape:pageshadow="2" inkscape:window-height="1385" inkscape:window-maximized="1" inkscape:window-width="2517" inkscape:window-x="43" inkscape:window-y="27" inkscape:zoom="1.4" pagecolor="#ffffff" showgrid="false">
	</sodipodi:namedview>
<g id="layer1" transform="translate(-1.3844539,-1.0755698)" inkscape:groupmode="layer" inkscape:label="Layer 1">
	<g id="g10629" transform="matrix(0.19513951,0,0,0.19513951,3.5309885,1.0754958)">
		<path id="path9938" inkscape:connector-curvature="0" d="M216.6,0c-4.7,0.1-9.7,1.9-15.5,6.4c-14-5.4-27.6-7.3-39.8,3.7
			c-18.8-2.4-24.9,2.6-29.5,8.5c-4.1-0.1-30.8-4.2-43.1,14C58,29,48.3,50.7,59.3,71c-6.3,9.7-12.8,19.4,1.9,37.9
			c-5.2,10.3-2,21.5,10.3,35.1c-3.2,14.5,3.1,24.8,14.5,32.8c-2.1,19.9,18.2,31.4,24.3,35.6c2.3,11.6,7.2,22.5,30.5,28.6
			c3.8,17.3,17.8,20.3,31.4,23.9c-44.8,26-83.1,60.2-82.9,144.2l-6.6,11.7c-51.3,31.2-97.5,131.5-25.3,213
			c4.7,25.5,12.6,43.8,19.7,64.1c10.5,81.7,79.3,120,97.4,124.5c26.6,20.2,54.9,39.4,93.1,52.9c36.1,37.2,75.2,51.4,114.5,51.4
			c0.6,0,80.2-14.2,116.2-51.4c38.3-13.5,66.6-32.6,93.1-52.9c18.1-4.5,86.9-42.8,97.4-124.5c7-20.3,14.9-38.6,19.7-64.1
			c72.2-81.5,26-181.8-25.3-213l-6.6-11.7c0.3-84-38.1-118.2-82.9-144.2c13.5-3.6,27.5-6.6,31.4-23.9c23.3-6,28.1-17,30.5-28.6
			c6.1-4.1,26.5-15.7,24.3-35.6c11.4-8,17.8-18.2,14.5-32.8c12.3-13.6,15.5-24.8,10.3-35.1c14.7-18.5,8.2-28.2,1.9-37.9
			c11-20.3,1.3-42-29.5-38.4c-12.2-18.3-39-14.1-43.1-14c-4.6-5.9-10.7-10.9-29.5-8.5c-12.2-11-25.8-9.1-39.8-3.7
			c-16.7-13.1-27.7-2.6-40.3,1.4c-20.2-6.6-24.8,2.4-34.7,6.1c-22-4.6-28.7,5.5-39.2,16.1l-12.3-0.2c-33.2,19.5-49.6,59.3-55.5,79.8
			c-5.8-20.5-22.3-60.3-55.4-79.8L315.3,30c-10.6-10.7-17.2-20.8-39.2-16.1c-9.9-3.7-14.5-12.7-34.7-6.1
			C233.1,5.2,225.5-0.3,216.6,0L-11,399.7"/>
		<path id="path9940" inkscape:connector-curvature="0" class="st0" d="M150.6,86c88,45.4,139.1,82,167.1,113.3
			c-14.3,57.5-89.2,60.1-116.6,58.5c5.6-2.6,10.3-5.7,11.9-10.5c-6.9-4.9-31.2-0.5-48.2-10.1c6.5-1.4,9.6-2.7,12.6-7.5
			c-16.1-5.1-33.4-9.5-43.5-18c5.5,0.1,10.6,1.2,17.8-3.7c-14.4-7.8-29.7-13.9-41.7-25.7c7.4-0.2,15.5-0.1,17.8-2.8
			c-13.2-8.2-24.3-17.2-33.5-27.2c10.4,1.3,14.8,0.2,17.3-1.6c-10-10.2-22.6-18.8-28.6-31.4c7.7,2.7,14.8,3.7,19.9-0.2
			c-3.4-7.6-17.9-12.1-26.2-30c8.1,0.8,16.8,1.8,18.5,0c-3.8-15.4-10.3-24-16.6-33c17.4-0.3,43.8,0.1,42.6-1.4l-10.8-11
			c17-4.6,34.4,0.7,47.1,4.7c5.7-4.5-0.1-10.1-7-15.9c14.5,1.9,27.5,5.3,39.3,9.8c6.3-5.7-4.1-11.4-9.1-17.1
			c22.3,4.2,31.8,10.2,41.2,16.2c6.8-6.5,0.4-12.1-4.2-17.8c16.8,6.2,25.5,14.3,34.6,22.2c3.1-4.2,7.9-7.2,2.1-17.3
			c12,6.9,21,15,27.6,24.1c7.4-4.7,4.4-11.2,4.4-17.1c12.4,10.1,20.3,20.9,30,31.4c1.9-1.4,3.6-6.2,5.2-13.8
			c29.6,28.8,71.5,101.2,10.8,129.9C280.8,140.3,219,109.3,150.6,86L150.6,86 M617.4,86c-88,45.4-139.1,82-167.1,113.3
			c14.3,57.5,89.2,60.1,116.6,58.5c-5.6-2.6-10.3-5.7-11.9-10.5c6.9-4.9,31.2-0.5,48.2-10.1c-6.5-1.4-9.6-2.7-12.6-7.5
			c16.1-5.1,33.4-9.5,43.5-18c-5.5,0.1-10.6,1.2-17.8-3.7c14.4-7.8,29.7-13.9,41.7-25.7c-7.4-0.2-15.5-0.1-17.8-2.8
			c13.2-8.2,24.3-17.2,33.5-27.2c-10.4,1.3-14.8,0.2-17.3-1.6c10-10.2,22.6-18.8,28.6-31.4c-7.7,2.7-14.8,3.7-19.9-0.2
			c3.4-7.6,17.9-12.1,26.2-30c-8.1,0.8-16.8,1.8-18.5,0c3.8-15.4,10.3-24,16.6-33c-17.4-0.3-43.8,0.1-42.6-1.4l10.8-11
			c-17-4.6-34.4,0.7-47.1,4.7c-5.7-4.5,0.1-10.1,7-15.9c-14.5,1.9-27.5,5.3-39.3,9.8c-6.3-5.7,4.1-11.4,9.1-17.1
			c-22.3,4.2-31.8,10.2-41.2,16.2c-6.8-6.5-0.4-12.1,4.2-17.8c-16.8,6.2-25.5,14.3-34.6,22.2c-3.1-4.2-7.9-7.2-2.1-17.3
			c-12,6.9-21,15-27.6,24.1c-7.4-4.7-4.4-11.2-4.4-17.1c-12.4,10.1-20.3,20.9-30,31.4c-1.9-1.4-3.6-6.2-5.2-13.8
			c-29.6,28.8-71.5,101.2-10.8,129.9C487.2,140.2,549,109.2,617.4,86L617.4,86"/>
		<path id="path9942" inkscape:connector-curvature="0" sodipodi:nodetypes="ccccccccccccccccccccccccccccccccc" class="st1" d="
			M106,440.8c47.1-12.6,15.9,195-22.4,178C41.3,584.9,27.7,485.5,106,440.8 M650.8,438.2c-47.1-12.6-15.9,195,22.4,178
			C715.4,582.3,729,482.9,650.8,438.2 M490.6,283.6c81.4-13.7,149.1,34.6,146.3,122.8C634.2,440.2,460.6,288.6,490.6,283.6
			 M265.8,281c-81.4-13.7-149.1,34.6-146.3,122.8C122.1,437.6,295.8,286,265.8,281 M382.7,260.4c-48.6-1.3-95.2,36-95.3,57.7
			c-0.1,26.3,38.4,53.2,95.6,53.9c58.4,0.4,95.7-21.5,95.9-48.7C479.1,292.5,425.7,259.9,382.7,260.4L382.7,260.4 M385.6,799.5
			c42.3-1.8,99.1,13.6,99.3,34.2c0.7,19.9-51.5,65-102.1,64.1c-52.3,2.3-103.7-42.9-103-58.5C279,816.3,343.6,798.4,385.6,799.5
			 M218.9,708.7c30.1,36.3,54.2,69.1,29.1,87.9c-23.8,14.4-81.6,8.4-122.7-50.6c-27.7-49.5-24.1-99.9-4.7-114.7
			c29.1-17.7,35.9-2.5,70.5,37.6 M549.5,709.1c-31,40.6-58.7,72.1-34.9,94.6c22.7,17.4,78.3,7.8,123.4-54.7
			c32.8-42,21.8-112.2,3.1-130.9c-27.8-21.5-36.7,15.5-66.1,57.7"/>
		<ellipse id="path9952" class="st2" cx="385.2" cy="566.4" rx="199.8" ry="186.7"/>
		<ellipse id="path9954" class="st3" cx="443.4" cy="638.6" rx="88.4" ry="81.5"/>
		<ellipse id="path9956" class="st4" cx="220" cy="784.5" rx="21.8" ry="15.5"/>
		
			<path id="path9960" sodipodi:cx="13.211679" sodipodi:cy="188.89716" sodipodi:end="6.2823136" sodipodi:rx="2.1301577" sodipodi:ry="8.2729378" sodipodi:start="0" sodipodi:type="arc" class="st4" d="
			M63.7,535.5c0,12.9-2.7,23.4-6,23.5c-3.3,0-6-10.5-6-23.4c0-12.9,2.7-23.5,6-23.5C61,512,63.7,522.5,63.7,535.5l-6,0L63.7,535.5z"
			/>
		
			<path id="path9962" sodipodi:cx="113.21387" sodipodi:cy="109.43074" sodipodi:end="6.2823126" sodipodi:rx="8.9674358" sodipodi:ry="8.8273201" sodipodi:start="0" sodipodi:type="arc" class="st4" d="
			M366.5,310.2c0,13.8-11.4,25-25.4,25s-25.4-11.2-25.4-25c0-13.8,11.4-25,25.4-25C355.1,285.2,366.5,296.4,366.5,310.2l-25.4,0
			L366.5,310.2z"/>
		
			<path id="path9964" sodipodi:cx="114.33479" sodipodi:cy="296.20563" sodipodi:end="6.2823126" sodipodi:rx="7.4261456" sodipodi:ry="7.1459327" sodipodi:start="0" sodipodi:type="arc" class="st4" d="
			M365.3,839.6c0,11.2-9.4,20.3-21,20.3c-11.6,0-21-9.1-21.1-20.2s9.4-20.3,21-20.3C355.9,819.4,365.3,828.4,365.3,839.6l-21.1,0
			L365.3,839.6z"/>
		
			<path id="path9966" sodipodi:cx="-20.901304" sodipodi:cy="120.37742" sodipodi:end="6.2823126" sodipodi:rx="6.8611259" sodipodi:ry="5.508944" sodipodi:start="0" sodipodi:type="arc" class="st5" d="
			M182,311c4.8,7.2,2.5,19-5.2,26.5c-7.7,7.5-17.8,7.8-22.6,0.6c-4.8-7.2-2.5-19,5.2-26.5C167.1,304.1,177.2,303.8,182,311
			l-13.9,13.6L182,311z"/>
		
			<path id="path9968" sodipodi:cx="190.12692" sodipodi:cy="111.56721" sodipodi:end="6.2823126" sodipodi:rx="6.3484235" sodipodi:ry="6.1518145" sodipodi:start="0" sodipodi:type="arc" class="st4" d="
			M577.1,316.3c0,9.6-8.1,17.4-18,17.4c-9.9,0-18-7.8-18-17.4c0-9.6,8-17.4,18-17.4S577.1,306.6,577.1,316.3l-18,0L577.1,316.3z"/>
		
			<path id="path9970" sodipodi:cx="275.31168" sodipodi:cy="200.31895" sodipodi:end="6.2823126" sodipodi:rx="1.75002" sodipodi:ry="8.5143576" sodipodi:start="0" sodipodi:type="arc" class="st6" d="
			M702.1,558.3c-2.4,13.1-6.6,23.7-9.4,23.7c-2.7,0-3-10.6-0.6-23.7c2.4-13.1,6.6-23.7,9.4-23.7
			C704.3,534.6,704.6,545.2,702.1,558.3l-5,0L702.1,558.3z"/>
		
			<path id="path9972" sodipodi:cx="189.9883" sodipodi:cy="273.22659" sodipodi:end="6.2823126" sodipodi:rx="7.4169164" sodipodi:ry="7.2860546" sodipodi:start="0" sodipodi:type="arc" class="st4" d="
			M579.8,774.5c0,11.4-9.4,20.7-21,20.7c-11.6,0-21-9.2-21-20.6c0-11.4,9.4-20.7,21-20.7C570.3,753.8,579.7,763.1,579.8,774.5l-21,0
			L579.8,774.5z"/>
	</g>
	<g id="flowRoot10631" transform="matrix(0.70863848,0,0,0.70863848,-61.590092,-10.311328)">
	</g>
	<g id="flowRoot840" transform="matrix(0.26458333,0,0,0.26458333,-0.1889881,0.1889881)">
	</g>
</g>
<rect x="150" y="5.9" class="st7" width="419" height="62"/>
<text transform="matrix(1 0 0 1 150 65.0892)" class="st8 st9">BeholderPi</text>
<rect x="155" y="76.9" class="st7" width="420" height="104"/>
<text transform="matrix(1 0 0 1 155 96.8695)"><tspan x="0" y="0" class="st10 st11">Low-cost platform for realtime </tspan><tspan x="0" y="37" class="st10 st11">streaming and tracking of rodent </tspan><tspan x="0" y="74" class="st10 st11">behavior in large arenas</tspan></text>
</svg>
